# xmcd
#
# Track frame offsets: 
#        183
#        21450
#        39565
#        55418
#        76933
#        97498
#        115500
#        140013
#        165663
#        181268
#
# Disc length: 2777 seconds
#
# Revision: 2
# Processed by: cddbd v1.4PL0 Copyright (c) Steve Scherf et al.
# Submitted via: ExactAudioCopy v0.90b4
#
DISCID=870ad70a
DTITLE=Paul Personne - La Chance
DYEAR=1989
DGENRE=Rock
TTITLE0=Trop tard
TTITLE1=Coeur à carreau
TTITLE2=La chance
TTITLE3=J'tiens l'bon bout
TTITLE4=Jacky
TTITLE5=Un mec comme moi
TTITLE6=On s'dit tout
TTITLE7=Aujourd'hui... c'est d'main déjà
TTITLE8=Bottleneck
TTITLE9=Ballade
EXTD=
EXTT0=
EXTT1=
EXTT2=
EXTT3=
EXTT4=
EXTT5=
EXTT6=
EXTT7=
EXTT8=
EXTT9=
PLAYORDER=
